<?xml version="1.0" encoding="UTF-8"?>
<svg version="1.1" xmlns="http://www.w3.org/2000/svg" width="500" height="772">
<path d="M0 0 C1.14539926 -0.00297112 2.29079852 -0.00594224 3.47090685 -0.0090034 C7.31204303 -0.01768035 11.15314801 -0.01919783 14.99429321 -0.02069092 C17.74750959 -0.02478326 20.50072271 -0.03032433 23.25393677 -0.03573608 C30.73788655 -0.04930129 38.22183097 -0.05534185 45.705791 -0.05974674 C50.38449561 -0.06251333 55.06319817 -0.06675155 59.7419014 -0.07125092 C72.71087451 -0.0834433 85.67984598 -0.09374132 98.64882469 -0.09712601 C99.89327067 -0.09745536 99.89327067 -0.09745536 101.16285697 -0.09779136 C101.99441636 -0.09800964 102.82597574 -0.09822791 103.68273389 -0.09845281 C105.36764169 -0.09889626 107.05254948 -0.09934283 108.73745728 -0.09979248 C109.99110236 -0.10012463 109.99110236 -0.10012463 111.27007361 -0.10046348 C124.79334796 -0.10440616 138.31656825 -0.12184412 151.83982174 -0.145152 C165.74376367 -0.16892124 179.64767855 -0.18133046 193.55164111 -0.18249393 C201.35005362 -0.18340778 209.14839576 -0.18908643 216.94678879 -0.20731354 C223.59164057 -0.22279022 230.23640024 -0.22779088 236.88126664 -0.21957543 C240.26559684 -0.21569488 243.64959277 -0.21813485 247.0339241 -0.23063278 C285.52147035 -0.3643571 316.98502705 10.2716449 345.18032837 37.26544189 C368.29687498 60.94258949 379.90275348 91.69793027 379.93032837 124.57794189 C379.93100311 125.29730927 379.93167786 126.01667664 379.93237305 126.75784302 C379.91681855 137.17572194 379.58211565 147.04269017 376.68032837 157.14044189 C376.34001587 158.36634033 375.99970337 159.59223877 375.64907837 160.85528564 C365.86541238 192.88357057 343.71323266 220.40447252 314.30532837 236.45294189 C302.30092091 242.73494285 289.8797714 246.09441658 276.68032837 249.14044189 C310.67032837 249.47044189 344.66032837 249.80044189 379.68032837 250.14044189 C379.68032837 291.39044189 379.68032837 332.64044189 379.68032837 375.14044189 C314.67032837 375.14044189 249.66032837 375.14044189 182.68032837 375.14044189 C182.02032837 380.42044189 181.36032837 385.70044189 180.68032837 391.14044189 C180.35032837 392.79044189 180.02032837 394.44044189 179.68032837 396.14044189 C180.73029999 396.13378006 181.78027161 396.12711823 182.86206055 396.12025452 C192.8339657 396.05901959 202.80583192 396.0142681 212.77788353 395.98500538 C217.9026724 395.96945462 223.02730759 395.94841383 228.15200806 395.91412354 C233.11225485 395.88114733 238.07235531 395.86350964 243.0327034 395.85581017 C244.91020634 395.85033441 246.78770271 395.83964548 248.66514206 395.82325172 C264.60768634 395.68977979 280.07354142 396.96335855 295.24282837 402.26544189 C296.54897095 402.71439819 296.54897095 402.71439819 297.88150024 403.17242432 C312.01417984 408.21962581 324.26223527 415.46210946 335.68032837 425.14044189 C336.4433728 425.77804443 336.4433728 425.77804443 337.22183228 426.42852783 C361.3351289 446.74331148 375.25317525 475.15037007 379.68032837 506.14044189 C379.68032837 511.42044189 379.68032837 516.70044189 379.68032837 522.14044189 C330.67532837 522.63544189 330.67532837 522.63544189 280.68032837 523.14044189 C290.58032837 526.11044189 290.58032837 526.11044189 300.68032837 529.14044189 C332.54455385 542.73287374 358.54198038 566.66546992 371.68032837 599.14044189 C377.29320966 614.63580586 380.07784669 629.63143879 380.05532837 646.14044189 C380.05451263 647.15607712 380.05451263 647.15607712 380.05368042 648.19223022 C379.94401764 678.02357652 369.92685608 705.294722 350.68032837 728.14044189 C349.93911743 729.03376221 349.19790649 729.92708252 348.43423462 730.84747314 C332.77188784 749.02249588 311.40749794 761.45666803 288.49282837 768.01544189 C287.82984741 768.20662598 287.16686646 768.39781006 286.48379517 768.5947876 C270.7057196 772.76704789 254.6807765 772.43285602 238.49380493 772.4151001 C235.86235037 772.4194537 233.23090708 772.42457572 230.59945679 772.43058777 C224.22432326 772.44326228 217.84923199 772.44513755 211.47408798 772.44278751 C206.28534052 772.44099587 201.09660576 772.44277199 195.9078598 772.44701195 C194.79511563 772.44790473 194.79511563 772.44790473 193.65989177 772.44881555 C192.15227367 772.45002745 190.64465558 772.45124159 189.13703749 772.45245793 C175.03466182 772.46330573 160.93231013 772.4611842 146.82993314 772.45507308 C133.96883805 772.44990746 121.10781879 772.46115492 108.2467387 772.4801713 C94.99676954 772.49961037 81.74683613 772.50779504 68.49685264 772.50404805 C61.07574958 772.50214504 53.654711 772.50453487 46.23361969 772.51876259 C39.91514994 772.53075517 33.59678435 772.53199411 27.27831295 772.51997242 C24.0637044 772.51413809 20.84932207 772.5145 17.63471985 772.52497482 C-22.64685187 772.64667487 -56.97932209 762.72339902 -86.31967163 734.14044189 C-109.23930273 710.55581655 -120.63615552 679.18027171 -120.61019897 646.6675415 C-120.61619822 645.14981765 -120.62300692 643.63209682 -120.6305542 642.11437988 C-120.64808333 638.02508556 -120.65290411 633.93587516 -120.65418577 629.84654689 C-120.65561584 627.28074655 -120.65990157 624.71496697 -120.66518021 622.14917183 C-120.68363998 613.16651196 -120.69185626 604.18391111 -120.6902771 595.20123291 C-120.68907807 586.87950643 -120.71014393 578.55804027 -120.74176443 570.23637956 C-120.76807904 563.05032528 -120.77863803 555.86435521 -120.77736628 548.67825323 C-120.77686092 544.40483862 -120.7823042 540.13165555 -120.80372238 535.85828972 C-120.98866424 496.18196661 -113.09790188 461.69986867 -84.57357788 432.30450439 C-59.6739597 407.59519207 -26.93845779 395.84508403 7.8359375 395.91384888 C9.72938148 395.9240565 11.62282427 395.9344884 13.51626587 395.94512939 C15.49165706 395.94886823 17.46705013 395.95171108 19.44244385 395.95370483 C24.59456675 395.96127281 29.74657352 395.98086106 34.89865112 396.00311279 C40.17481923 396.02372004 45.45100645 396.03273809 50.72720337 396.04278564 C61.0449622 396.06411465 71.36263556 396.09816609 81.68032837 396.14044189 C81.24720337 394.24358643 81.24720337 394.24358643 80.80532837 392.30841064 C80.43016039 390.64829235 80.05516961 388.988134 79.68032837 387.32794189 C79.48954712 386.49456299 79.29876587 385.66118408 79.10220337 384.80255127 C78.92173462 384.00010986 78.74126587 383.19766846 78.55532837 382.37091064 C78.38775024 381.63251953 78.22017212 380.89412842 78.04751587 380.13336182 C77.68032837 378.14044189 77.68032837 378.14044189 77.68032837 375.14044189 C12.34032837 375.14044189 -52.99967163 375.14044189 -120.31967163 375.14044189 C-120.38154663 352.20544189 -120.44342163 329.27044189 -120.50717163 305.64044189 C-120.54813965 294.81715088 -120.54813965 294.81715088 -120.5899353 283.77520752 C-120.60348511 274.89727783 -120.60348511 274.89727783 -120.60600281 270.72821045 C-120.60877397 267.84467503 -120.61991995 264.96130887 -120.63639832 262.07781982 C-120.85612568 221.82425105 -111.66798398 189.38111236 -83.19467163 159.64044189 C-64.41685966 141.30722993 -42.61508878 131.97784585 -17.31967163 126.14044189 C-51.30967163 125.81044189 -85.29967163 125.48044189 -120.31967163 125.14044189 C-120.31967163 89.67605148 -107.73306785 60.27105159 -83.19467163 34.64044189 C-64.90432859 16.78315712 -42.32240638 5.93406966 -17.31967163 1.14044189 C-16.09725801 0.88048872 -16.09725801 0.88048872 -14.85014915 0.61528397 C-9.89326874 -0.0514064 -4.99617609 -0.00405021 0 0 Z " fill="#000000" transform="translate(120.31967163085938,-0.14044189453125)"/>
<path d="M0 0 C1.14539926 -0.00297112 2.29079852 -0.00594224 3.47090685 -0.0090034 C7.31204303 -0.01768035 11.15314801 -0.01919783 14.99429321 -0.02069092 C17.74750959 -0.02478326 20.50072271 -0.03032433 23.25393677 -0.03573608 C30.73788655 -0.04930129 38.22183097 -0.05534185 45.705791 -0.05974674 C50.38449561 -0.06251333 55.06319817 -0.06675155 59.7419014 -0.07125092 C72.71087451 -0.0834433 85.67984598 -0.09374132 98.64882469 -0.09712601 C99.89327067 -0.09745536 99.89327067 -0.09745536 101.16285697 -0.09779136 C101.99441636 -0.09800964 102.82597574 -0.09822791 103.68273389 -0.09845281 C105.36764169 -0.09889626 107.05254948 -0.09934283 108.73745728 -0.09979248 C109.99110236 -0.10012463 109.99110236 -0.10012463 111.27007361 -0.10046348 C124.79334796 -0.10440616 138.31656825 -0.12184412 151.83982174 -0.145152 C165.74376367 -0.16892124 179.64767855 -0.18133046 193.55164111 -0.18249393 C201.35005362 -0.18340778 209.14839576 -0.18908643 216.94678879 -0.20731354 C223.59164057 -0.22279022 230.23640024 -0.22779088 236.88126664 -0.21957543 C240.26559684 -0.21569488 243.64959277 -0.21813485 247.0339241 -0.23063278 C285.52147035 -0.3643571 316.98502705 10.2716449 345.18032837 37.26544189 C368.29687498 60.94258949 379.90275348 91.69793027 379.93032837 124.57794189 C379.93100311 125.29730927 379.93167786 126.01667664 379.93237305 126.75784302 C379.91681855 137.17572194 379.58211565 147.04269017 376.68032837 157.14044189 C376.34001587 158.36634033 375.99970337 159.59223877 375.64907837 160.85528564 C365.86541238 192.88357057 343.71323266 220.40447252 314.30532837 236.45294189 C302.30092091 242.73494285 289.8797714 246.09441658 276.68032837 249.14044189 C310.67032837 249.47044189 344.66032837 249.80044189 379.68032837 250.14044189 C379.68032837 291.39044189 379.68032837 332.64044189 379.68032837 375.14044189 C314.67032837 375.14044189 249.66032837 375.14044189 182.68032837 375.14044189 C187.67719998 347.65764805 200.78976389 323.45278906 213.5284729 298.9019165 C236.4991287 254.62157477 264.96760527 196.2317441 250.68032837 145.14044189 C241.63934585 116.99156726 222.02038805 96.70326029 196.13711548 83.26470947 C162.6158685 66.45321057 121.40025353 63.73088378 85.80142212 75.32403564 C57.37914099 85.10716484 32.93457198 103.35187597 18.80532837 130.14044189 C2.1607624 165.03907196 11.75100436 209.06537766 23.68032837 244.14044189 C30.95534223 264.54526166 41.10614329 283.96310395 50.44790649 303.47540283 C77.68032837 360.36830205 77.68032837 360.36830205 77.68032837 375.14044189 C12.34032837 375.14044189 -52.99967163 375.14044189 -120.31967163 375.14044189 C-120.38154663 352.20544189 -120.44342163 329.27044189 -120.50717163 305.64044189 C-120.54813965 294.81715088 -120.54813965 294.81715088 -120.5899353 283.77520752 C-120.60348511 274.89727783 -120.60348511 274.89727783 -120.60600281 270.72821045 C-120.60877397 267.84467503 -120.61991995 264.96130887 -120.63639832 262.07781982 C-120.85612568 221.82425105 -111.66798398 189.38111236 -83.19467163 159.64044189 C-64.41685966 141.30722993 -42.61508878 131.97784585 -17.31967163 126.14044189 C-51.30967163 125.81044189 -85.29967163 125.48044189 -120.31967163 125.14044189 C-120.31967163 89.67605148 -107.73306785 60.27105159 -83.19467163 34.64044189 C-64.90432859 16.78315712 -42.32240638 5.93406966 -17.31967163 1.14044189 C-16.09725801 0.88048872 -16.09725801 0.88048872 -14.85014915 0.61528397 C-9.89326874 -0.0514064 -4.99617609 -0.00405021 0 0 Z " fill="#000000" transform="translate(120.31967163085938,-0.14044189453125)"/>
<path d="M0 0 C18.68117417 16.32809232 31.43809837 36.95387183 34.41796875 61.84765625 C36.8530344 100.40364738 23.78369219 139.5118556 7.41796875 173.84765625 C6.53059844 175.74058011 5.64390445 177.63382114 4.7578125 179.52734375 C0.54083967 188.48766437 -3.78941521 197.36314086 -8.45703125 206.09765625 C-41.60979229 268.53780406 -48.91718701 326.92502743 -32.97753906 395.66650391 C-32.58203125 397.84765625 -32.58203125 397.84765625 -32.58203125 401.84765625 C-33.24552078 401.84321503 -33.90901031 401.8387738 -34.59260559 401.834198 C-43.1931937 401.77944658 -51.79379993 401.74376013 -60.39453125 401.72265625 C-61.08726387 401.72094421 -61.77999649 401.71923218 -62.49372101 401.71746826 C-90.22904048 401.65701265 -117.87843085 402.47217048 -145.58203125 403.84765625 C-144.59950878 393.42685002 -144.59950878 393.42685002 -143.71484375 388.421875 C-139.94707496 366.44447214 -137.31617926 344.59803533 -137.26953125 322.28515625 C-137.26594604 321.59623291 -137.26236084 320.90730957 -137.25866699 320.19750977 C-137.23420413 311.51891785 -137.92282614 303.3561979 -139.58203125 294.84765625 C-139.92092337 292.83122351 -140.2568077 290.8142832 -140.58984375 288.796875 C-146.35433288 255.77159272 -160.50857137 225.96316619 -175.20703125 196.09765625 C-189.34297818 167.36616114 -201.12112712 139.13584305 -207.06201172 107.53076172 C-207.51622048 105.18721512 -208.01928256 102.86505644 -208.5546875 100.5390625 C-214.09558885 75.37027483 -212.10267089 47.59542447 -198.83203125 25.22265625 C-180.4055706 -3.39863123 -150.61280923 -21.35870712 -117.734375 -28.64453125 C-76.45194503 -35.29473682 -32.50727559 -27.09759281 0 0 Z " fill="#E0B40B" transform="translate(340.58203125,98.15234375)"/>
<path d="M0 0 C11.63399698 10.168578 21.09422066 21.64832006 27.41796875 35.84765625 C27.41796875 37.16765625 27.41796875 38.48765625 27.41796875 39.84765625 C26.71051514 40.00621094 26.00306152 40.16476563 25.27416992 40.328125 C17.16605478 42.23855551 9.49712662 44.85321218 1.73046875 47.84765625 C1.10646179 48.08686798 0.48245483 48.32607971 -0.16046143 48.57254028 C-31.72626076 60.69190051 -63.20271848 73.80883667 -87.58203125 97.84765625 C-88.4225 98.67523438 -89.26296875 99.5028125 -90.12890625 100.35546875 C-100.60083047 111.26094397 -108.58982966 124.411115 -115.64086914 137.72143555 C-117.57088327 141.3143322 -119.52634887 144.13300985 -122.58203125 146.84765625 C-122.6078125 146.19539062 -122.63359375 145.543125 -122.66015625 144.87109375 C-123.03294048 139.12682762 -123.64594729 135.31564345 -127.58203125 130.84765625 C-132.54313462 126.77432927 -136.1646173 126.1983508 -142.33203125 126.34765625 C-143.52965088 126.36687134 -143.52965088 126.36687134 -144.75146484 126.38647461 C-154.376483 126.71631304 -160.81853569 129.50125305 -167.79296875 136.1640625 C-169.67101481 137.93139406 -171.37000325 139.51104474 -173.58203125 140.84765625 C-178.41136718 140.50941482 -181.94187443 136.73003723 -185.58203125 133.84765625 C-186.57203125 133.12578125 -187.56203125 132.40390625 -188.58203125 131.66015625 C-195.93225021 125.40847545 -201.81628039 115.64867246 -205.58203125 106.84765625 C-205.58203125 105.52765625 -205.58203125 104.20765625 -205.58203125 102.84765625 C-206.24203125 102.84765625 -206.90203125 102.84765625 -207.58203125 102.84765625 C-214.41469733 78.93332497 -212.64170304 50.5141807 -200.796875 28.53515625 C-183.59188563 -0.47047195 -155.70938925 -18.14528563 -123.8359375 -27.21875 C-81.77572091 -37.47371447 -33.36812545 -27.81518476 0 0 Z " fill="#F5DB31" transform="translate(340.58203125,98.15234375)"/>
<path d="M0 0 C-0.4626123 0.35191406 -0.92522461 0.70382813 -1.40185547 1.06640625 C-6.61088776 5.03174164 -11.80889077 9.01123434 -17 13 C-18.43472656 14.10021484 -18.43472656 14.10021484 -19.8984375 15.22265625 C-26.45936231 20.35587151 -32.55393996 25.96098521 -38.60205078 31.68115234 C-39.7249298 32.74049438 -40.85878313 33.78819822 -41.99609375 34.83203125 C-65.04544197 56.66534671 -79.66907373 87.55884426 -87 118 C-87.18030762 118.70680908 -87.36061523 119.41361816 -87.54638672 120.1418457 C-88.20652615 124.30129262 -88.20359752 128.42300128 -88.23828125 132.62890625 C-88.25038887 134.04537697 -88.25038887 134.04537697 -88.26274109 135.49046326 C-88.27655955 137.49516991 -88.28729169 139.49989986 -88.29516602 141.50463867 C-88.30657018 143.51642963 -88.32683296 145.5281932 -88.35668945 147.53979492 C-88.56401379 161.53708318 -87.39615539 174.40950871 -84 188 C-83.73872314 189.06549072 -83.47744629 190.13098145 -83.20825195 191.22875977 C-82.52580501 193.83880761 -81.78311186 196.41851172 -81 199 C-80.71366699 199.95946533 -80.42733398 200.91893066 -80.13232422 201.9074707 C-71.45094183 230.55247283 -61.86363943 258.4032325 -48 285 C-47.28457031 286.41925781 -47.28457031 286.41925781 -46.5546875 287.8671875 C-40.64147412 299.25434698 -33.1888281 310.17532584 -24.36328125 319.49609375 C-23 321 -23 321 -23 322 C-23.58832108 322.00808685 -24.17664215 322.01617371 -24.78279114 322.02450562 C-59.88155579 322.51415123 -94.93187266 323.44929174 -130 325 C-129.01747753 314.57919377 -129.01747753 314.57919377 -128.1328125 309.57421875 C-124.36504371 287.59681589 -121.73414801 265.75037908 -121.6875 243.4375 C-121.68391479 242.74857666 -121.68032959 242.05965332 -121.67663574 241.34985352 C-121.65217288 232.6712616 -122.34079489 224.50854165 -124 216 C-124.33889212 213.98356726 -124.67477645 211.96662695 -125.0078125 209.94921875 C-130.77230163 176.92393647 -144.92654012 147.11550994 -159.625 117.25 C-192 51.44739344 -192 51.44739344 -192 24 C-191.34 24 -190.68 24 -190 24 C-189.68869141 24.89138672 -189.68869141 24.89138672 -189.37109375 25.80078125 C-185.19150068 37.04546052 -178.84551765 47.14828585 -169.4375 54.6875 C-168.01244141 55.83798828 -168.01244141 55.83798828 -166.55859375 57.01171875 C-162.9735861 60.10972851 -162.9735861 60.10972851 -158.55078125 60.86328125 C-155.50414268 59.83218305 -154.30125607 58.58605689 -152.1875 56.1875 C-146.53905338 50.22940319 -140.14163581 47.00203461 -131.8828125 46.76171875 C-130.29697429 46.73127277 -128.71101404 46.70671665 -127.125 46.6875 C-126.33480469 46.65849609 -125.54460937 46.62949219 -124.73046875 46.59960938 C-119.31099964 46.54099615 -116.30392159 47.41448718 -112 51 C-108.54154168 54.92581756 -106.95354283 57.46457169 -106.4375 62.625 C-106.31181641 63.85089844 -106.31181641 63.85089844 -106.18359375 65.1015625 C-106.12300781 65.72804688 -106.06242187 66.35453125 -106 67 C-105.62488281 66.31292969 -105.24976563 65.62585938 -104.86328125 64.91796875 C-104.35152344 64.01691406 -103.83976562 63.11585938 -103.3125 62.1875 C-102.81363281 61.29417969 -102.31476563 60.40085938 -101.80078125 59.48046875 C-99.77402217 56.68872902 -97.97966999 55.6816401 -95 54 C-93.28098667 52.45093775 -91.5967966 50.86286562 -89.9375 49.25 C-77.94274135 37.94475113 -64.26620917 28.21498934 -50 20 C-48.95585937 19.360625 -47.91171875 18.72125 -46.8359375 18.0625 C-9.11035676 -4.55517838 -9.11035676 -4.55517838 0 0 Z " fill="#F4C612" transform="translate(325,177)"/>
<path d="M0 0 C2.67464819 3.13038433 3.69239867 5.82076136 4.625 9.8125 C4.86476563 10.80894531 5.10453125 11.80539063 5.3515625 12.83203125 C8.11189343 26.31774441 7.54997293 39.87046108 5.625 53.4375 C5.49899414 54.33098145 5.37298828 55.22446289 5.24316406 56.14501953 C4.62195139 60.17205782 3.97289145 63.39456377 2 67 C1.67 66.01 1.34 65.02 1 64 C0.66379639 64.51272461 0.32759277 65.02544922 -0.01879883 65.55371094 C-21.09021614 97.50242923 -21.09021614 97.50242923 -34.1875 102.125 C-38.08889687 101.95160458 -39.36362337 100.8501369 -42 98 C-49.85727603 82.28544793 -46.00384947 62.79272486 -43.27539062 46.14038086 C-42.91492509 43.69845469 -42.91492509 43.69845469 -43 40 C-77.50134304 46.9800405 -114.71675714 70.16154336 -138.55664062 95.6652832 C-140 97 -140 97 -142 97 C-136.40239971 82.10010743 -125.78866375 69.45198123 -115 58 C-114.40058594 57.33613281 -113.80117187 56.67226562 -113.18359375 55.98828125 C-88.11821215 29.29879285 -36.13143337 5.01213481 0 0 Z " fill="#DCC226" transform="translate(368,137)"/>
<path d="M0 0 C50.16 0 100.32 0 152 0 C165 27 165 27 166 31 C106.6 31 47.2 31 -14 31 C-11.75223044 24.25669131 -11.75223044 24.25669131 -10.1953125 21.23046875 C-9.85886719 20.56853516 -9.52242187 19.90660156 -9.17578125 19.22460938 C-8.82902344 18.55236328 -8.48226562 17.88011719 -8.125 17.1875 C-5.21953094 11.52570192 -2.59059337 5.82883508 0 0 Z " fill="#F3C612" transform="translate(176,555)"/>
<path d="M0 0 C7.92 0 15.84 0 24 0 C26.50674062 6.85925799 29.01125416 13.71932011 31.51215553 20.58070946 C32.67427489 23.7688045 33.83726074 26.95657709 35.00244141 30.14355469 C40.20126498 44.36896859 45.30402268 58.60004298 50 73 C42.41 73 34.82 73 27 73 C26.34 70.03 25.68 67.06 25 64 C16.09 64 7.18 64 -2 64 C-2.33 66.31 -2.66 68.62 -3 71 C-3.33 71.66 -3.66 72.32 -4 73 C-11.26 73 -18.52 73 -26 73 C-22.6246137 61.74871235 -22.6246137 61.74871235 -20.65576172 56.296875 C-20.00025833 54.47579224 -20.00025833 54.47579224 -19.33151245 52.61791992 C-18.86433201 51.32857902 -18.39705481 50.03927318 -17.9296875 48.75 C-17.44292571 47.40152063 -16.95636727 46.05296785 -16.47000122 44.7043457 C-15.45805797 41.90011394 -14.44434436 39.09653125 -13.42919922 36.29345703 C-12.12741622 32.69874451 -10.82913448 29.10277983 -9.53202629 25.50637817 C-8.53105898 22.73170727 -7.52878938 19.95750833 -6.52606583 17.18347168 C-6.0465375 15.8566714 -5.56729538 14.52976765 -5.08834457 13.20275879 C-4.42196347 11.35737667 -3.75375144 9.51265601 -3.08544922 7.66796875 C-2.70589081 6.61891357 -2.3263324 5.5698584 -1.93527222 4.48901367 C-1 2 -1 2 0 0 Z " fill="#FAFAFA" transform="translate(318,625)"/>
<path d="M0 0 C5.67941919 0.01037609 11.35884304 0.01482771 17.03826904 0.01983643 C28.10859353 0.03044313 39.17889769 0.04742643 50.24920654 0.06866455 C50.89037351 1.66480112 51.53086888 3.26120747 52.17108154 4.85772705 C52.70620361 6.19118164 52.70620361 6.19118164 53.25213623 7.55157471 C54.99186274 11.94348956 56.24920654 15.31365926 56.24920654 20.06866455 C23.6203788 20.88443948 -8.98806987 21.16167066 -41.62579346 21.13116455 C-43.00933077 21.12988052 -43.00933077 21.12988052 -44.42081833 21.12857056 C-55.86416328 21.11716277 -67.30747825 21.09706131 -78.75079346 21.06866455 C-78.43532583 19.63162714 -78.11879549 18.19482299 -77.80181885 16.75811768 C-77.53758873 15.55789978 -77.53758873 15.55789978 -77.26802063 14.33343506 C-76.66957024 11.71301433 -75.96583105 9.14145911 -75.18829346 6.56866455 C-74.93950439 5.73335205 -74.69071533 4.89803955 -74.43438721 4.03741455 C-73.75079346 2.06866455 -73.75079346 2.06866455 -72.75079346 1.06866455 C-69.46049053 0.67430293 -66.13098735 0.63421179 -62.82110596 0.5100708 C-61.1388945 0.44669273 -61.1388945 0.44669273 -59.42269897 0.3820343 C-39.62557505 -0.25543831 -19.80449278 -0.04009372 0 0 Z " fill="#F1C512" transform="translate(262.75079345703125,516.9313354492188)"/>
<path d="M0 0 C2.13120262 3.19680393 3.62001109 6.48595891 5.125 10 C5.40214844 10.6290625 5.67929687 11.258125 5.96484375 11.90625 C7.20009858 14.7783696 8 16.83945116 8 20 C-41.5 20 -91 20 -142 20 C-140.1826524 13.94217467 -138.22069963 7.92186568 -136 2 C-91.12 2 -46.24 2 0 2 C0 1.34 0 0.68 0 0 Z " fill="#096B34" transform="translate(319,535)"/>
<path d="M0 0 C18.48 0 36.96 0 56 0 C54.39439057 5.35203144 52.7669811 10.69905669 51 16 C41.76 16 32.52 16 23 16 C23 20.95 23 25.9 23 31 C30.26 31 37.52 31 45 31 C43.7934375 34.6815625 43.7934375 34.6815625 42.5625 38.4375 C42.18460327 39.5985022 42.18460327 39.5985022 41.79907227 40.78295898 C40.11111111 45.88888889 40.11111111 45.88888889 39 47 C36.3013095 47.07325436 33.63497444 47.09222351 30.9375 47.0625 C28.318125 47.041875 25.69875 47.02125 23 47 C23 55.91 23 64.82 23 74 C15.41 74 7.82 74 0 74 C0 49.58 0 25.16 0 0 Z " fill="#F7F7F7" transform="translate(147,625)"/>
<path d="M0 0 C18.15 0 36.3 0 55 0 C54 6 54 6 50 16 C40.76 16 31.52 16 22 16 C22 20.95 22 25.9 22 31 C29.26 31 36.52 31 44 31 C42.53799042 36.51576341 41.12108206 41.69729484 39 47 C33.39 47 27.78 47 22 47 C22 55.58 22 64.16 22 73 C14.74 73 7.48 73 0 73 C0 48.91 0 24.82 0 0 Z " fill="#FCFCFC" transform="translate(248,625)"/>
<path d="M0 0 C0.70882954 0.00171204 1.41765907 0.00342407 2.14796829 0.00518799 C10.84874244 0.02778148 19.54938124 0.06765129 28.25 0.125 C28.92126129 2.5613189 29.58716354 4.99888883 30.25 7.4375 C30.44078125 8.12779297 30.6315625 8.81808594 30.828125 9.52929688 C31.62716184 12.48287949 32.25 15.05059219 32.25 18.125 C20.05182655 18.25702704 7.85363762 18.38751319 -4.34457207 18.51615143 C-10.01162382 18.57596013 -15.67866943 18.6362557 -21.34570312 18.69775391 C-69.53258547 19.22001517 -69.53258547 19.22001517 -90.75 19.125 C-89.43 13.515 -88.11 7.905 -86.75 2.125 C-57.82338903 0.71768866 -28.95750838 -0.07044551 0 0 Z " fill="#056935" transform="translate(280.75,498.875)"/>
<path d="M0 0 C7.26 0 14.52 0 22 0 C22 23.76 22 47.52 22 72 C14.74 72 7.48 72 0 72 C0 48.24 0 24.48 0 0 Z " fill="#FFFFFF" transform="translate(210,626)"/>
<path d="M0 0 C5.3876303 10.42925332 6.31167239 23.08285156 8.1472168 34.53759766 C8.25427444 35.20568451 8.36133209 35.87377136 8.47163391 36.56210327 C8.78712286 38.53377813 9.10133716 40.50565682 9.41552734 42.47753906 C9.8889455 45.33070411 10.41048575 48.15900955 10.98828125 50.9921875 C13.31314464 62.96048932 13.25893681 74.91297605 13.25 87.0625 C13.24940582 87.97368591 13.24881165 88.88487183 13.24819946 89.82366943 C13.24169124 92.4359714 13.22521764 95.0479431 13.203125 97.66015625 C13.1987291 98.45612717 13.19433319 99.25209808 13.18980408 100.07218933 C13.1483649 103.29921865 13.02747985 105.91756045 12 109 C13.32 109.33 14.64 109.66 16 110 C8.08 110.33 0.16 110.66 -8 111 C-6.88032638 99.80326383 -6.88032638 99.80326383 -6.1328125 95.57421875 C-0.62378972 63.4784111 0.40137481 32.49489289 0 0 Z " fill="#DEB30B" transform="translate(203,391)"/>
<path d="M0 0 C0.66 0 1.32 0 2 0 C1.95359375 0.79664063 1.9071875 1.59328125 1.859375 2.4140625 C1.61111953 9.19753946 1.61111953 9.19753946 3.6875 15.5625 C8.68521456 20.8303613 13.68684426 22.14122041 20.75 22.5625 C30.70015559 22.53996284 40.36334764 17.15984427 48 11 C46.04318563 18.17498601 39.56458631 23.22591427 33.3671875 26.8671875 C24.54371449 31.08964158 15.37423828 33.84304887 5.8125 30.875 C1.04694952 28.91436998 -1.69819456 25.60361089 -4 21 C-4.70005748 12.89769542 -4.35169108 6.93550766 0 0 Z " fill="#E1B50C" transform="translate(162,246)"/>
<path d="M0 0 C2.1907346 2.1907346 2.59220975 3.37400123 3.47265625 6.2890625 C3.86227539 7.57876953 3.86227539 7.57876953 4.25976562 8.89453125 C4.52466797 9.79558594 4.78957031 10.69664062 5.0625 11.625 C5.33126953 12.50285156 5.60003906 13.38070312 5.87695312 14.28515625 C6.26463867 15.58646484 6.26463867 15.58646484 6.66015625 16.9140625 C6.89355713 17.6973291 7.12695801 18.4805957 7.36743164 19.28759766 C8.18779145 22.80523467 8.55198282 26.41586259 9 30 C3.39 30 -2.22 30 -8 30 C-6.69403458 22.96300186 -4.99092396 16.20872572 -2.875 9.375 C-2.59785156 8.46621094 -2.32070313 7.55742188 -2.03515625 6.62109375 C-1.36102123 4.41272041 -0.68260023 2.20576837 0 0 Z " fill="#111111" transform="translate(329,645)"/>
<path d="M0 0 C4.62 0 9.24 0 14 0 C14 1.32 14 2.64 14 4 C12.35 4.33 10.7 4.66 9 5 C9.825 5.4125 10.65 5.825 11.5 6.25 C12.325 6.8275 13.15 7.405 14 8 C14 9.32 14 10.64 14 12 C12.35 12.66 10.7 13.32 9 14 C10.65 14.33 12.3 14.66 14 15 C14 16.32 14 17.64 14 19 C9.38 19 4.76 19 0 19 C0 17.35 0 15.7 0 14 C2.31 12.68 4.62 11.36 7 10 C4.702779 8.25728062 2.40133271 6.60088848 0 5 C0 3.35 0 1.7 0 0 Z " fill="#000000" transform="translate(484,738)"/>
<path d="M0 0 C0.99 0 1.98 0 3 0 C3 1.65 3 3.3 3 5 C6.63 5 10.26 5 14 5 C14 6.32 14 7.64 14 9 C10.37 9 6.74 9 3 9 C3 10.65 3 12.3 3 14 C2.01 14 1.02 14 0 14 C0 9.38 0 4.76 0 0 Z " fill="#000000" transform="translate(484,758)"/>
</svg>
